HIERARCHY
ROOT Hips
{
	OFFSET 0.00000 0.00000 0.00000
	CHANNELS 6 Xposition Yposition Zposition Zrotation Yrotation Xrotation 
	JOINT LHipJoint
	{
		OFFSET 0 0 0
		CHANNELS 3 Zrotation Yrotation Xrotation
		JOINT LeftHip
		{
			OFFSET 1.57358 -1.76629 0.73362
			CHANNELS 3 Zrotation Yrotation Xrotation
			JOINT LeftKnee
			{
				OFFSET 2.40600 -6.61045 0.00000
				CHANNELS 3 Zrotation Yrotation Xrotation
				JOINT LeftAnkle
				{
					OFFSET 2.66168 -7.31291 0.00000
					CHANNELS 3 Zrotation Yrotation Xrotation
					JOINT LeftToe
					{
						OFFSET 0.20870 -0.57341 2.12506
						CHANNELS 3 Zrotation Yrotation Xrotation
						End Site
						{
							OFFSET 0.00000 -0.00000 1.10557
						}
					}
				}
			}
		}
	}
	JOINT RHipJoint
	{
		OFFSET 0 0 0
		CHANNELS 3 Zrotation Yrotation Xrotation
		JOINT RightHip
		{
			OFFSET -1.49299 -1.76629 0.73362
			CHANNELS 3 Zrotation Yrotation Xrotation
			JOINT RightKnee
			{
				OFFSET -2.43663 -6.69460 0.00000
				CHANNELS 3 Zrotation Yrotation Xrotation
				JOINT RightAnkle
				{
					OFFSET -2.62959 -7.22474 0.00000
					CHANNELS 3 Zrotation Yrotation Xrotation
					JOINT RightToe
					{
						OFFSET -0.25784 -0.70841 2.21862
						CHANNELS 3 Zrotation Yrotation Xrotation
						End Site
						{
							OFFSET -0.00000 -0.00000 1.16452
						}
					}
				}
			}
		}
	}
	JOINT lowerback
	{
		OFFSET 0 0 0
		CHANNELS 3 Zrotation Yrotation Xrotation
		JOINT Chest
		{
			OFFSET -0.00034 2.12399 -0.25450
			CHANNELS 3 Zrotation Yrotation Xrotation
			JOINT Chest2
			{
				OFFSET 0.05594 2.14379 -0.03318
				CHANNELS 3 Zrotation Yrotation Xrotation
				JOINT lowerneck
				{
					OFFSET 0 0 0
					CHANNELS 3 Zrotation Yrotation Xrotation
					JOINT Neck
					{
						OFFSET -0.09835 1.62725 0.24211
						CHANNELS 3 Zrotation Yrotation Xrotation
						JOINT Head
						{
							OFFSET 0.10849 1.66041 -0.22648
							CHANNELS 3 Zrotation Yrotation Xrotation
							End Site
							{
								OFFSET 0.04385 1.68267 -0.10541
							}
						}
					}
				}
				JOINT LeftCollar
				{
					OFFSET 0 0 0
					CHANNELS 3 Zrotation Yrotation Xrotation
					JOINT LeftShoulder
					{
						OFFSET 3.29108 0.79398 -0.68179
CHANNELS 3 Zrotation Xrotation Yrotation
						JOINT LeftElbow
						{
OFFSET 0 -5.153100 -0.000000
CHANNELS 3 Zrotation Xrotation Yrotation
							JOINT LeftWrist
							{
OFFSET 0 -3.751380 -0.000000
CHANNELS 3 Zrotation Xrotation Yrotation
								JOINT lhand
								{
									OFFSET 0 0 0
CHANNELS 3 Zrotation Xrotation Yrotation
									JOINT LFingers
									{
OFFSET 0 -0.529170 0.000000
CHANNELS 3 Zrotation Xrotation Yrotation
										End Site
										{
OFFSET 0 -0.426630 0.000000
										}
									}
								}
								JOINT LThumb
								{
OFFSET 0 0.000000 0.000000
CHANNELS 3 Zrotation Xrotation Yrotation
									End Site
									{
OFFSET 0 -0.433150 0.433150
									}
								}
							}
						}
					}
				}
				JOINT RightCollar
				{
					OFFSET 0 0 0
					CHANNELS 3 Zrotation Yrotation Xrotation
					JOINT RightShoulder
					{
						OFFSET -3.07414 1.06285 -0.44338
CHANNELS 3 Zrotation Xrotation Yrotation
						JOINT RightElbow
						{
OFFSET 0 -5.296130 0.000000
CHANNELS 3 Zrotation Xrotation Yrotation
							JOINT RightWrist
							{
OFFSET 0 -3.761440 -0.000000
CHANNELS 3 Zrotation Xrotation Yrotation
								JOINT rhand
								{
									OFFSET 0 0 0
CHANNELS 3 Zrotation Xrotation Yrotation
									JOINT RFingers
									{
OFFSET 0 -0.747320 0.000000
CHANNELS 3 Zrotation Xrotation Yrotation
										End Site
										{
OFFSET 0 -0.602510 0.000000
										}
									}
								}
								JOINT RThumb
								{
OFFSET 0 0.000000 0.000000
CHANNELS 3 Zrotation Xrotation Yrotation
									End Site
									{
OFFSET 0 -0.611710 0.611710
									}
								}
							}
						}
					}
				}
			}
		}
	}
}
MOTION
Frames: 5
Frame Time: 0.008333333333333333
-12.640300 17.019100 -28.980200 -5.131900 0.546300 -5.353500 0.000000 0.000000 0.000000 -18.340600 -8.619100 -32.440100 2.031300 8.931000 25.579600 0.176800 4.455300 7.633100 0.734400 -5.475100 -15.268800 0.000000 0.000000 0.000000 26.914000 1.341800 1.364400 -8.589000 -16.535800 54.657500 -0.207800 -4.004200 8.156500 -0.133700 2.356500 -6.492000 1.947600 0.936100 12.445700 4.835400 1.856400 0.416900 3.689000 0.928900 -6.661300 -11.776000 -3.010300 -7.148200 5.747000 -3.493300 17.922100 3.533300 -1.995100 6.963700 -0.000000 0.000000 0.000000 1.537300 38.765300 -38.086600 96.648400 -59.832300 65.754400 18.756200 -28.734700 -6.861500 0.000000 0.000000 0.000000 -7.125000 0.000000 0.000000 -6.804000 37.145800 -1.322400 -0.000000 0.000000 0.000000 -15.094800 13.937900 55.240800 -129.928900 -53.024100 -93.769100 -14.560200 -10.137600 -20.418700 0.000000 0.000000 0.000000 7.125000 0.000000 -0.000000 8.909700 9.145200 7.473800
-12.638663 17.032739 -28.822643 -5.184591 0.651625 -5.502155 0.000000 0.000000 0.000000 -18.515787 -8.422750 -31.975872 1.852897 8.523139 24.332672 0.212980 5.043775 8.351652 0.697645 -5.334198 -14.865418 0.000000 0.000000 0.000000 26.907022 1.319403 1.279692 -8.738919 -16.634262 55.179013 -0.250613 -3.433815 8.905490 -0.120376 2.227055 -6.133959 1.850487 0.914650 12.546919 4.884330 1.825446 0.364668 3.803025 0.918563 -6.777335 -11.792281 -2.980781 -6.981426 5.732557 -3.470558 18.033713 3.535999 -1.990908 6.968352 0.000000 0.000000 0.000000 1.406362 39.353345 -37.959423 97.699323 -59.764046 66.661980 18.563755 -29.011135 -6.843151 0.000000 0.000000 0.000000 -7.125000 0.000000 0.000000 -6.963509 37.114903 -1.359384 0.000000 0.000000 0.000000 -15.168769 14.090489 55.418342 -130.169470 -52.925724 -93.960856 -14.756378 -11.004089 -24.109320 0.000000 0.000000 0.000000 7.125000 0.000000 0.000000 9.062404 5.419979 8.252681
-12.637027 17.046379 -28.665087 -5.237282 0.756950 -5.650810 0.000000 0.000000 0.000000 -18.690975 -8.226400 -31.511645 1.674493 8.115278 23.085744 0.249161 5.632251 9.070205 0.660891 -5.193296 -14.462037 0.000000 0.000000 0.000000 26.900045 1.297005 1.194984 -8.888837 -16.732724 55.700526 -0.293427 -2.863429 9.654479 -0.107053 2.097610 -5.775917 1.753375 0.893201 12.648137 4.933259 1.794491 0.312437 3.917051 0.908226 -6.893371 -11.808562 -2.951263 -6.814652 5.718113 -3.447816 18.145327 3.538698 -1.986715 6.973004 0.000000 0.000000 0.000000 1.275424 39.941389 -37.832247 98.750246 -59.695791 67.569560 18.371311 -29.287569 -6.824803 0.000000 0.000000 0.000000 -7.125000 0.000000 0.000000 -7.123018 37.084006 -1.396369 0.000000 0.000000 0.000000 -15.242737 14.243078 55.595884 -130.410041 -52.827348 -94.152611 -14.952555 -11.870579 -27.799941 0.000000 0.000000 0.000000 7.125000 0.000000 0.000000 9.215108 1.694757 9.031563
-12.635390 17.060018 -28.507530 -5.289973 0.862275 -5.799465 0.000000 0.000000 0.000000 -18.866162 -8.030050 -31.047417 1.496090 7.707417 21.838815 0.285341 6.220726 9.788757 0.624136 -5.052393 -14.058655 0.000000 0.000000 0.000000 26.893067 1.274608 1.110276 -9.038756 -16.831186 56.222040 -0.336240 -2.293044 10.403469 -0.093729 1.968165 -5.417876 1.656262 0.871751 12.749356 4.982189 1.763537 0.260205 4.031076 0.897888 -7.009406 -11.824843 -2.921744 -6.647878 5.703670 -3.425074 18.256940 3.541397 -1.982523 6.977655 0.000000 0.000000 0.000000 1.144485 40.529434 -37.705070 99.801169 -59.627537 68.477140 18.178866 -29.564004 -6.806454 0.000000 0.000000 0.000000 -7.125000 0.000000 0.000000 -7.282528 37.053110 -1.433353 0.000000 0.000000 0.000000 -15.316706 14.395667 55.773426 -130.650611 -52.728972 -94.344367 -15.148733 -12.737068 -31.490561 0.000000 0.000000 0.000000 7.125000 0.000000 0.000000 9.367812 -2.030464 9.810444
-12.632030 17.069616 -28.351816 -5.376348 0.694017 -5.847680 0.000000 0.000000 0.000000 -18.922187 -7.707748 -30.851794 1.365054 7.388110 20.873359 0.308922 6.880714 10.323381 0.575243 -4.844704 -13.468344 0.000000 0.000000 0.000000 26.926667 1.558466 1.048926 -9.221659 -16.945398 56.849536 -0.353572 -1.901194 10.734916 -0.086795 1.900128 -5.229692 1.547159 0.907772 12.739555 5.083270 1.807408 0.181600 4.195114 0.926227 -7.099054 -11.903231 -2.863565 -6.334009 5.675557 -3.370685 18.324841 3.553145 -1.969594 6.940630 0.000000 0.000000 0.000000 0.845116 41.135517 -37.431898 100.817472 -59.547114 69.353562 18.069864 -29.795419 -6.830689 0.000000 0.000000 0.000000 -7.125000 0.000000 0.000000 -7.377582 37.071646 -1.448644 0.000000 0.000000 0.000000 -15.480298 14.547929 56.068777 -130.826905 -52.656286 -94.484728 -15.276519 -13.086452 -33.325806 0.000000 0.000000 0.000000 7.125000 0.000000 0.000000 9.429257 -3.887711 10.181828
